<svg width="73" height="72" viewBox="0 0 73 72" xmlns="http://www.w3.org/2000/svg">
  <path
    d="M16.5 42C15.9323 42.0019 15.3757 41.8428 14.8949 41.5409C14.414 41.2391 14.0287 40.8071 13.7836 40.295C13.5386 39.7829 13.4439 39.2118 13.5105 38.648C13.5771 38.0842 13.8023 37.5509 14.16 37.11L39.86 6.51C40.0828 6.25285 40.3864 6.07907 40.7209 6.0172C41.0555 5.95533 41.4012 6.00904 41.7012 6.16951C42.0012 6.32999 42.2378 6.58769 42.372 6.90032C42.5063 7.21296 42.5302 7.56195 42.44 7.89L38.68 25.95C38.5102 26.4046 38.4531 26.8936 38.5138 27.375C38.5744 27.8565 38.751 28.316 39.0283 28.7143C39.3056 29.1125 39.6753 29.4375 40.1058 29.6615C40.5363 29.8854 41.0147 30.0016 41.5 30H56.5C57.0677 29.9981 57.6243 30.1573 58.1051 30.4591C58.586 30.7609 58.9713 31.1929 59.2164 31.705C59.4614 32.2171 59.5561 32.7882 59.4895 33.352C59.4229 33.9158 59.1977 34.4491 58.84 34.89L33.14 65.49C32.9172 65.7472 32.6136 65.9209 32.2791 65.9828C31.9445 66.0447 31.5988 65.991 31.2988 65.8305C30.9988 65.67 30.7622 65.4123 30.628 65.0997C30.4937 64.787 30.4698 64.4381 30.56 64.11L34.32 46.05C34.4898 45.5954 34.5469 45.1064 34.4862 44.625C34.4256 44.1435 34.249 43.684 33.9717 43.2857C33.6944 42.8875 33.3247 42.5625 32.8942 42.3385C32.4637 42.1146 31.9853 41.9984 31.5 42H16.5Z"
    stroke="currentColor" stroke-width="4" stroke-linecap="round" stroke-linejoin="round" fill="none" />
</svg>