<svg width="25" height="24" viewBox="0 0 25 24" xmlns="http://www.w3.org/2000/svg">
  <path fill-rule="evenodd" clip-rule="evenodd"
    d="M3.89619 2.03909C3.42716 2.58211 3.16663 3.27763 3.16663 4V9V21C2.61434 21 2.16663 21.4477 2.16663 22C2.16663 22.5523 2.61434 23 3.16663 23H4.16663H14.1666H15.1666C15.7189 23 16.1666 22.5523 16.1666 22C16.1666 21.4477 15.7189 21 15.1666 21V13.3095L13.1666 11.3095V21H5.16663V10H11.8571L9.8571 8H5.16663V4C5.16663 3.809 5.22127 3.62363 5.3219 3.4648L3.89619 2.03909ZM12.6855 8H13.1666V4C13.1666 3.73478 13.0613 3.48043 12.8737 3.29289C12.6862 3.10536 12.4318 3 12.1666 3H7.68553L5.71908 1.03356C5.86633 1.01134 6.0159 1 6.16663 1H12.1666C12.9623 1 13.7253 1.31607 14.2879 1.87868C14.8506 2.44129 15.1666 3.20435 15.1666 4V9V10.4811L12.6855 8ZM19.8946 18.0375C19.4745 18.156 19.1666 18.542 19.1666 19C19.1666 19.5523 19.6143 20 20.1666 20C20.6449 20 21.1114 19.8858 21.5296 19.6725L19.8946 18.0375ZM22.9068 18.2213L21.1666 16.4811V9.83V9.82921C21.1667 9.69725 21.1407 9.56658 21.0901 9.44472C21.0395 9.32287 20.9652 9.21224 20.8716 9.11921L20.8695 9.11711L17.4595 5.70711C17.069 5.31658 17.069 4.68342 17.4595 4.29289C17.85 3.90237 18.4832 3.90237 18.8737 4.29289L22.2816 7.70079L22.2827 7.70189C22.563 7.98075 22.7853 8.31225 22.937 8.67734C23.0888 9.04267 23.1668 9.4344 23.1666 9.83V9.83009V9.83079V17C23.1666 17.4249 23.0765 17.8405 22.9068 18.2213Z" />
  <path d="M1.97131 1.52856L22.638 22.1952" stroke="currentColor" stroke-width="2" stroke-linecap="round" fill="none" />
</svg>